<svg width="50" height="50" viewBox="0 0 50 50" xmlns="http://www.w3.org/2000/svg" xmlns:xlink="http://www.w3.org/1999/xlink" overflow="hidden"><path d="M25 3C12.85 3 3 12.85 3 25 3 37.15 12.85 47 25 47 37.15 47 47 37.15 47 25 47 12.85 37.15 3 25 3ZM21 11 38 11 36.9805 11.8809C36.9805 11.9209 37 11.96 37 12L37 17.2793C37.6 17.6193 38 18.26 38 19L38 25C38 26.1 37.1 27 36 27 34.9 27 34 26.1 34 25L34 19C34 18.26 34.4 17.6193 35 17.2793L35 13.5703 31.4102 16.6504C31.7602 17.3504 32 18.2002 32 19.2402 32 21.9602 30.4807 23.3098 28.9707 24.5098 28.5007 24.9898 27.9492 25.5103 27.9492 26.3203 27.9492 27.1203 28.5004 27.5706 28.9004 27.8906L30.1895 28.9199C31.7795 30.2799 33.2207 31.5305 33.2207 34.0605 33.2207 37.5105 29.9305 41 23.7305 41 18.5005 41 15.9805 38.47 15.9805 35.75 15.9805 34.43 16.6298 32.5595 18.7598 31.2695 20.9898 29.8795 24.0204 29.6901 25.6504 29.5801 25.1404 28.9201 24.5605 28.2301 24.5605 27.0801 24.5605 26.4701 24.7497 26.1004 24.9297 25.6504 24.5297 25.6904 24.1295 25.7305 23.7695 25.7305 19.9695 25.7305 17.7993 22.85 17.7793 20L11 20 21 11ZM24.2695 14.2402C23.3395 14.2402 22.33 14.7109 21.75 15.4609 21.14 16.2209 20.9492 17.2102 20.9492 18.1602 20.9492 20.6202 22.3709 24.6992 25.4609 24.6992 26.3709 24.6992 27.3399 24.2599 27.9199 23.6699 28.7399 22.8199 28.8203 21.65 28.8203 21 28.8203 18.35 27.2695 14.2402 24.2695 14.2402ZM26.0391 30.6094C25.7191 30.6094 23.7698 30.6792 22.2598 31.1992 21.4598 31.4992 19.1602 32.3705 19.1602 34.9805 19.1602 37.5905 21.64 39.4609 25.5 39.4609 28.97 39.4609 30.8008 37.7602 30.8008 35.4902 30.8008 33.6202 29.6209 32.6304 26.8809 30.6504 26.5909 30.6104 26.4091 30.6094 26.0391 30.6094Z" fill="#009688"/></svg>